<?xml version="1.0" encoding="UTF-8"?>
<svg width="40px" height="40px" viewBox="0 0 40 40" version="1.1" xmlns="http://www.w3.org/2000/svg" xmlns:xlink="http://www.w3.org/1999/xlink">
    <!-- Generator: Sketch 53.2 (72643) - https://sketchapp.com -->
    <title>pluginIcon</title>
    <desc>Created with Sketch.</desc>
    <defs>
        <path d="M8.79027233,0.395991211 L27.1236276,0.395991211 C31.8072128,0.395991211 35.6040088,4.19278719 35.6040088,8.87637239 L35.6040088,33.5700136 C35.6040088,34.7409099 34.6548098,35.6901089 33.4839135,35.6901089 L8.79027233,35.6901089 C4.10668713,35.6901089 0.309891142,31.8933129 0.309891142,27.2097277 L0.309891142,8.87637239 C0.309891142,4.19278719 4.10668713,0.395991211 8.79027233,0.395991211 Z" id="path-1"></path>
        <linearGradient x1="67.2885791%" y1="48.5696831%" x2="-84.7420641%" y2="56.4203822%" id="linearGradient-3">
            <stop stop-color="#000000" stop-opacity="0" offset="0%"></stop>
            <stop stop-color="#000000" stop-opacity="0.2" offset="100%"></stop>
        </linearGradient>
        <linearGradient x1="28.8560476%" y1="49.4073341%" x2="-10.733951%" y2="51.9015969%" id="linearGradient-4">
            <stop stop-color="#000000" stop-opacity="0" offset="0%"></stop>
            <stop stop-color="#000000" stop-opacity="0.2" offset="100%"></stop>
        </linearGradient>
        <linearGradient x1="60.5787603%" y1="50%" x2="-116.153146%" y2="50%" id="linearGradient-5">
            <stop stop-color="#FFFFFF" offset="0%"></stop>
            <stop stop-color="#2DD7A6" offset="100%"></stop>
        </linearGradient>
        <linearGradient x1="50%" y1="48.0854043%" x2="0%" y2="63.5655483%" id="linearGradient-6">
            <stop stop-color="#000000" stop-opacity="0" offset="0%"></stop>
            <stop stop-color="#000000" stop-opacity="0.2" offset="100%"></stop>
        </linearGradient>
        <linearGradient x1="72.5672218%" y1="50%" x2="-27.5621409%" y2="50%" id="linearGradient-7">
            <stop stop-color="#FFFFFF" offset="0%"></stop>
            <stop stop-color="#2DD7A6" offset="100%"></stop>
        </linearGradient>
    </defs>
    <g id="pluginIcon" stroke="none" stroke-width="1" fill="none" fill-rule="evenodd">
        <g id="Path-9-Copy-+-Path-9-Mask" transform="translate(20.000000, 20.000000) scale(-1, 1) translate(-20.000000, -20.000000) translate(2.000000, 2.000000)">
            <mask id="mask-2" fill="white">
                <use xlink:href="#path-1"></use>
            </mask>
            <use id="Rectangle-14" fill="#2DD7A6" xlink:href="#path-1"></use>
            <g id="Group-3" mask="url(#mask-2)">
                <g transform="translate(6.228018, 22.140000)">
                    <path d="M8.84219702,9.28122221 L30.1015352,9.23214894 C31.0805358,9.2298891 31.8760046,10.021694 31.8782645,11.0006946 C31.8789624,11.3030457 31.8023127,11.6005504 31.6556029,11.8649231 L29.8294996,15.1555816 C29.5176911,15.717464 28.926215,16.0665991 28.2836155,16.0680824 L5.41141769,16.1208787 C5.02990166,16.1217593 4.7199079,15.8131934 4.71902724,15.4316774 C4.71875526,15.3138513 4.74862561,15.1979139 4.80579834,15.094888 L7.63733661,9.99242437 C7.8803598,9.55449386 8.34135566,9.28237831 8.84219702,9.28122221 Z" id="Rectangle-14-Copy-2" fill="url(#linearGradient-3)" transform="translate(18.298647, 12.676512) rotate(45.000000) translate(-18.298647, -12.676512) "></path>
                    <path d="M-1.84454489,14.3729522 L29.1174465,14.3524279 C29.5914245,14.3521137 30.045787,14.5416305 30.3790603,14.8786531 L31.716453,16.2310914 C32.1463115,16.6657857 32.1423912,17.3666442 31.7076969,17.7965027 C31.5011036,18.0007977 31.2224701,18.1156756 30.9319245,18.1163463 L-0.962528657,18.1899687 C-1.75756505,18.1918039 -2.47736137,17.7201346 -2.79305271,16.9904599 L-3.09884634,16.2836623 C-3.39877096,15.59043 -3.07993212,14.7853173 -2.38669986,14.4853926 C-2.215538,14.41134 -2.03103928,14.3730759 -1.84454489,14.3729522 Z" id="Rectangle-14-Copy-4" fill="url(#linearGradient-4)" transform="translate(14.412332, 16.271201) rotate(45.000000) translate(-14.412332, -16.271201) "></path>
                    <g id="Group-2-Copy-2" stroke-width="1" fill="none" transform="translate(7.510022, 4.489412) scale(1, -1) rotate(90.000000) translate(-7.510022, -4.489412) translate(5.350022, -2.710588)">
                        <path d="M-0.239728559,6.2099505 L3.9766301,6.2099505 C5.04361619,6.2099505 5.90857931,5.36954573 5.90857931,4.33285392 C5.90857931,3.2961621 5.04361619,2.45575733 3.9766301,2.45575733 L-0.239728559,2.45575733 C-1.30671465,2.45575733 -2.17167777,3.2961621 -2.17167777,4.33285392 C-2.17167777,5.36954573 -1.30671465,6.2099505 -0.239728559,6.2099505 Z" id="Path-9-Copy" fill="url(#linearGradient-5)" fill-rule="nonzero" transform="translate(1.868451, 4.332854) rotate(-90.000000) translate(-1.868451, -4.332854) "></path>
                        <path d="M1.42108547e-14,11.802353 L1.42108547e-14,11.802353 C1.43407146e-14,12.8627397 0.859613289,13.722353 1.92000002,13.722353 L1.92000002,13.722353 C2.98038675,13.722353 3.84000004,12.8627397 3.84000004,11.802353 L3.84000004,11.802353 C3.84000004,10.7419662 2.98038675,9.88235294 1.92000002,9.88235294 L1.92000002,9.88235294 C0.859613289,9.88235294 1.43030394e-14,10.7419662 1.44328993e-14,11.802353 Z" id="Path-9-Copy-4" fill="#FFFFFF" fill-rule="nonzero" transform="translate(1.920000, 11.802353) scale(-1, 1) translate(-1.920000, -11.802353) "></path>
                    </g>
                </g>
            </g>
            <g id="Group-4" mask="url(#mask-2)">
                <g transform="translate(15.840000, 6.480000)">
                    <path d="M2.50394725,11.7663704 L34.3539356,11.6928506 C35.3329362,11.6905907 36.128405,12.4823956 36.1306649,13.4613963 C36.1306667,13.462183 36.130668,13.4629698 36.1306688,13.4637565 L36.140024,23.0411942 C36.1409794,24.0192754 35.3495535,24.8133055 34.3714745,24.8155632 L2.52148616,24.8890831 C1.54248551,24.8913429 0.747016712,24.099538 0.744756869,23.1205374 C0.744755053,23.1197506 0.744753761,23.1189639 0.744752992,23.1181771 L0.735397696,13.5407394 C0.7344423,12.5626583 1.52586822,11.7686281 2.50394725,11.7663704 Z" id="Rectangle-14-Copy" fill="url(#linearGradient-6)" transform="translate(18.437711, 18.290967) rotate(45.000000) translate(-18.437711, -18.290967) "></path>
                    <g id="Group-2" stroke-width="1" fill="none" transform="translate(6.840000, 10.653057) scale(-1, 1) translate(-6.840000, -10.653057) translate(0.360000, 0.573057)">
                        <path d="M1.95577928,14.6883809 L11.1116902,14.7095156 C12.1811449,14.7119843 13.0461738,13.8755162 13.0437863,12.8412119 C13.0413988,11.8069076 12.172499,10.966437 11.1030442,10.9639684 L1.94713337,10.9428337 C0.87767864,10.940365 0.0126497336,11.7768331 0.0150372347,12.8111374 C0.0174247359,13.8454417 0.886324546,14.6859123 1.95577928,14.6883809 Z" id="Path-9-Copy" fill="url(#linearGradient-7)" fill-rule="nonzero" transform="translate(6.529412, 12.826175) rotate(-225.000000) translate(-6.529412, -12.826175) "></path>
                        <path d="M4.55367969,1.5934 L4.53158602,11.1647351 C4.52946064,12.0854853 5.27415312,12.8336237 6.19490323,12.835749 C6.19746879,12.835755 6.20003436,12.835755 6.20259992,12.835749 L8.36084554,12.8307671 L8.38680536,1.58455194 C8.38923743,0.530938911 7.53708689,-0.325154791 6.48347387,-0.327586862 C6.4805381,-0.327593639 6.47760232,-0.327593639 6.47466655,-0.327586862 L6.47466655,-0.327586862 C5.41474988,-0.32514024 4.55612631,0.533483332 4.55367969,1.5934 Z" id="Path-9-Copy-3" fill="#FFFFFF" fill-rule="nonzero" transform="translate(6.459196, 6.254081) scale(-1, 1) rotate(45.000000) translate(-6.459196, -6.254081) "></path>
                    </g>
                </g>
            </g>
        </g>
    </g>
</svg>