<?xml version="1.0" encoding="UTF-8" standalone="no"?>
<svg xmlns:svg="http://www.w3.org/2000/svg"
     xmlns="http://www.w3.org/2000/svg"
     id="svg12"
     version="1.1"
     x="0px"
     y="0px"
     viewBox="0 0 200 200"
     xml:space="preserve"
     width="40"
     height="40">
	<style type="text/css"
           id="style2">
		.st0{fill:#4E4E4E;}
		.st1{fill:#558B95;}
	</style>
    <path class="st0"
          d="m 145.59999,94.999993 c 9.9,0 18,-8.1 18,-18 0,-9.899996 -8.1,-17.999996 -18,-17.999996 -9.9,0 -18,8 -18,17.999996 0,9.9 8.1,18 18,18"
          id="path22"/>
    <path class="st0"
          d="m 145.59999,141.8 c 9.9,0 18,-8.1 18,-18 0,-9.9 -8.1,-18 -18,-18 -9.9,0 -18,8.1 -18,18 0,9.9 8.1,18 18,18"
          id="path24"/>
    <path class="st0"
          d="m 98.8,141.8 c 9.9,0 17.99999,-8.1 17.99999,-18 0,-9.9 -7.99999,-18 -17.99999,-18 -9.9,0 -18,8.1 -18,18 0,9.9 8.1,18 18,18"
          id="path26"/>
    <path class="st0"
          d="m 98.8,94.999993 c 9.9,0 17.99999,-8.1 17.99999,-18 0,-9.899996 -7.99999,-17.999996 -17.99999,-17.999996 -9.9,0 -18,8 -18,17.999996 0,9.9 8.1,18 18,18"
          id="path28"/>
    <path class="st1"
          d="m 32.5,30.199997 c 0,-10.8 8.7,-19.5 19.5,-19.5 10.8,0 19.5,8.7 19.5,19.5 0,10.8 -8.7,19.5 -19.5,19.5 -10.8,0 -19.5,-8.7 -19.5,-19.5 m 19.5,14.1 c 7.8,0 14.1,-6.3 14.1,-14.1 0,-7.8 -6.3,-14.1 -14.1,-14.1 -7.8,0 -14.1,6.3 -14.1,14.1 0,7.8 6.3,14.1 14.1,14.1"
          id="path30"/>
    <path class="st1"
          d="m 32.5,76.999993 c 0,-10.799996 8.7,-19.499996 19.5,-19.499996 10.8,0 19.5,8.7 19.5,19.499996 0,10.8 -8.7,19.5 -19.5,19.5 -10.8,0 -19.5,-8.8 -19.5,-19.5 m 19.5,14.1 c 7.8,0 14.1,-6.3 14.1,-14.1 0,-7.799996 -6.3,-14.099996 -14.1,-14.099996 -7.8,0 -14.1,6.3 -14.1,14.099996 0,7.8 6.3,14.1 14.1,14.1"
          id="path32"/>
    <path class="st1"
          d="m 32.5,123.8 c 0,-10.8 8.7,-19.5 19.5,-19.5 10.8,0 19.5,8.7 19.5,19.5 0,10.8 -8.7,19.5 -19.5,19.5 -10.8,-0.1 -19.5,-8.8 -19.5,-19.5 m 19.5,14 c 7.8,0 14.1,-6.3 14.1,-14.1 0,-7.8 -6.3,-14.1 -14.1,-14.1 -7.8,0 -14.1,6.3 -14.1,14.1 0,7.8 6.3,14.1 14.1,14.1"
          id="path34"/>
    <path class="st1"
          d="m 79.3,170.5 c 0,-10.8 8.7,-19.5 19.5,-19.5 10.79999,0 19.49999,8.7 19.49999,19.5 0,10.8 -8.7,19.5 -19.49999,19.5 -10.7,0 -19.5,-8.7 -19.5,-19.5 m 19.5,14.1 c 7.8,0 14.09999,-6.3 14.09999,-14.1 0,-7.8 -6.29999,-14.1 -14.09999,-14.1 -7.8,0 -14.1,6.3 -14.1,14.1 0,7.8 6.3,14.1 14.1,14.1"
          id="path36"/>
    <path class="st1"
          d="m 126.09999,170.5 c 0,-10.8 8.7,-19.5 19.5,-19.5 10.8,0 19.5,8.7 19.5,19.5 0,10.8 -8.7,19.5 -19.5,19.5 -10.7,0 -19.5,-8.7 -19.5,-19.5 m 19.5,14.1 c 7.8,0 14.1,-6.3 14.1,-14.1 0,-7.8 -6.3,-14.1 -14.1,-14.1 -7.8,0 -14.1,6.3 -14.1,14.1 0.1,7.8 6.4,14.1 14.1,14.1"
          id="path38"/>
</svg>
