<?xml version="1.0" standalone="no"?>
<!DOCTYPE svg PUBLIC "-//W3C//DTD SVG 1.0//EN" "http://www.w3.org/TR/2001/REC-SVG-20010904/DTD/svg10.dtd">
<svg xmlns="http://www.w3.org/2000/svg" xmlns:xlink="http://www.w3.org/1999/xlink" id="body_1" width="32" height="32">

<g transform="matrix(0.047976013 0 0 0.047976013 0 0)">
	<g transform="matrix(0.1334 0 -0 -0.13340001 0 666.99994)">
	</g>
    <path transform="matrix(0.1334 0 -0 -0.13340001 0 666.99994)"  d="M0 2500L0 0L2500 0L5000 0L5000 2500L5000 5000L2500 5000L0 5000L0 2500zM1841 3250C 1859 3226 1859 3205 1834 2560C 1820 2194 1807 1880 1804 1862C 1798 1823 1768 1790 1739 1790C 1728 1790 1451 1964 1125 2176C 486 2591 496 2583 538 2639C 551 2656 758 2768 1156 2972C 1801 3303 1802 3304 1841 3250zM3070 3025L3070 2820L3040 2820C 3016 2820 3010 2824 3010 2842C 3010 2863 3010 2863 2989 2844C 2958 2816 2851 2817 2820 2845C 2766 2894 2751 2990 2787 3052C 2826 3120 2932 3140 2986 3089L2986 3089L3010 3067L3010 3148L3010 3230L3040 3230L3070 3230L3070 3025zM2299 3199C 2320 3193 2347 3180 2361 3169L2361 3169L2385 3151L2364 3130L2343 3109L2309 3129C 2217 3185 2100 3125 2100 3021C 2100 2908 2214 2843 2309 2901C 2340 2920 2343 2920 2361 2904C 2372 2895 2380 2884 2380 2880C 2380 2876 2357 2861 2329 2845C 2285 2822 2269 2818 2216 2822C 2112 2828 2039 2898 2032 2999C 2022 3144 2154 3243 2299 3199zM2658 3093C 2725 3043 2744 2959 2704 2889C 2650 2796 2488 2797 2438 2891C 2405 2953 2418 3038 2468 3083C 2512 3123 2611 3128 2658 3093zM3355 3106C 3399 3087 3430 3037 3430 2983L3430 2983L3430 2941L3318 2938L3205 2935L3237 2903C 3273 2866 3320 2859 3358 2886C 3376 2898 3384 2899 3395 2890C 3417 2872 3413 2862 3378 2840C 3334 2814 3256 2813 3213 2840C 3143 2883 3124 2997 3177 3061C 3224 3117 3289 3133 3355 3106zM2331 2689C 2382 2666 2388 2657 2366 2627C 2353 2610 2351 2610 2319 2629C 2279 2654 2211 2656 2170 2635C 2121 2610 2100 2573 2100 2515C 2100 2457 2121 2420 2170 2395C 2205 2377 2269 2376 2305 2392C 2327 2402 2330 2409 2330 2457C 2330 2509 2330 2510 2360 2510L2360 2510L2391 2510L2388 2438L2385 2365L2345 2345C 2286 2316 2193 2313 2144 2338C 2046 2388 2005 2492 2045 2588C 2091 2696 2214 2739 2331 2689zM4118 2643C 4121 2600 4121 2600 4161 2600C 4193 2600 4200 2597 4200 2580C 4200 2563 4193 2560 4160 2560L4160 2560L4119 2560L4122 2473L4125 2385L4161 2382C 4188 2380 4199 2373 4203 2359C 4209 2336 4184 2320 4140 2320C 4071 2320 4050 2357 4050 2481C 4050 2553 4048 2560 4030 2560C 4017 2560 4010 2567 4010 2580C 4010 2593 4017 2600 4030 2600C 4047 2600 4050 2607 4050 2638C 4050 2684 4056 2692 4090 2688C 4112 2685 4115 2680 4118 2643zM2655 2606C 2699 2587 2730 2537 2730 2483L2730 2483L2730 2441L2618 2438L2505 2435L2537 2403C 2573 2366 2620 2359 2658 2386C 2676 2398 2684 2399 2695 2390C 2717 2372 2713 2362 2678 2340C 2634 2314 2556 2313 2513 2340C 2443 2383 2424 2497 2477 2561C 2524 2617 2589 2633 2655 2606zM2860 2594L2860 2569L2886 2589C 2943 2634 3037 2623 3065 2570C 3076 2549 3080 2509 3080 2430L3080 2430L3080 2320L3050 2320L3020 2320L3020 2415C 3020 2505 3018 2513 2994 2537C 2974 2557 2963 2561 2937 2556C 2879 2544 2866 2521 2862 2415L2862 2415L2858 2320L2829 2320L2800 2320L2800 2470L2800 2620L2830 2620C 2856 2620 2860 2616 2860 2594zM3360 2602C 3401 2582 3430 2531 3430 2478L3430 2478L3430 2440L3320 2440C 3250 2440 3210 2436 3210 2430C 3210 2424 3222 2408 3236 2395C 3267 2366 3311 2363 3354 2385C 3382 2400 3410 2392 3410 2369C 3410 2348 3344 2320 3295 2320C 3176 2320 3110 2424 3158 2534C 3192 2609 3284 2641 3360 2602zM3560 2595L3560 2571L3596 2595C 3644 2628 3660 2627 3660 2593C 3660 2570 3653 2562 3620 2548C 3570 2527 3560 2502 3560 2399L3560 2399L3560 2320L3530 2320L3500 2320L3500 2470L3500 2620L3530 2620C 3555 2620 3560 2616 3560 2595zM3895 2606C 3913 2598 3933 2583 3938 2573C 3943 2563 3950 2502 3952 2438L3952 2438L3956 2320L3923 2320C 3900 2320 3890 2325 3890 2336C 3890 2350 3888 2350 3868 2336C 3855 2327 3825 2320 3797 2320C 3757 2320 3744 2325 3719 2349C 3671 2397 3683 2460 3745 2486C 3764 2494 3805 2500 3835 2500C 3888 2500 3891 2501 3888 2522C 3886 2536 3873 2551 3855 2559C 3829 2572 3820 2571 3780 2557C 3738 2542 3734 2542 3723 2557C 3704 2582 3707 2587 3753 2603C 3807 2623 3852 2624 3895 2606zM4468 2600C 4502 2585 4515 2571 4532 2534C 4580 2424 4514 2320 4395 2320C 4234 2320 4178 2526 4320 2598C 4374 2625 4412 2626 4468 2600zM4680 2593L4680 2567L4703 2588C 4715 2599 4737 2612 4753 2615C 4778 2622 4780 2620 4780 2592C 4780 2566 4775 2561 4750 2555C 4696 2543 4680 2509 4680 2409L4680 2409L4680 2320L4645 2320L4610 2320L4610 2463C 4610 2542 4613 2610 4617 2613C 4620 2617 4636 2620 4652 2620C 4676 2620 4680 2616 4680 2593zM3554 2234C 3575 2226 3575 2186 3554 2169C 3523 2143 3484 2194 3510 2225C 3524 2242 3531 2243 3554 2234zM2820 2025L2820 1820L2785 1820L2750 1820L2750 2025L2750 2230L2785 2230L2820 2230L2820 2025zM2280 2194C 2322 2177 2328 2165 2307 2136C 2296 2120 2292 2120 2258 2135C 2192 2162 2120 2150 2120 2111C 2120 2084 2147 2066 2224 2039C 2323 2005 2353 1954 2315 1881C 2283 1819 2162 1801 2074 1846C 2031 1869 2023 1886 2042 1913C 2054 1929 2058 1928 2104 1905C 2163 1875 2209 1873 2241 1899C 2261 1915 2263 1921 2253 1943C 2244 1963 2225 1974 2170 1991C 2084 2019 2050 2049 2050 2097C 2050 2142 2064 2167 2103 2190C 2143 2215 2224 2216 2280 2194zM3352 2148C 3355 2105 3355 2105 3398 2102C 3432 2099 3440 2095 3440 2079C 3440 2063 3433 2060 3395 2060L3395 2060L3349 2060L3352 1973L3355 1885L3393 1885C 3424 1885 3432 1881 3437 1862C 3444 1832 3439 1828 3382 1822C 3338 1818 3331 1820 3312 1845C 3293 1869 3290 1886 3290 1966C 3290 2053 3289 2060 3270 2060C 3257 2060 3250 2067 3250 2079C 3250 2089 3259 2100 3270 2103C 3286 2107 3290 2117 3290 2149C 3290 2188 3292 2190 3319 2190C 3347 2190 3349 2187 3352 2148zM2617 2095C 2706 2036 2700 1881 2606 1836C 2539 1804 2437 1824 2403 1876C 2350 1958 2379 2066 2465 2106C 2502 2123 2582 2117 2617 2095zM2970 2022C 2970 1910 2983 1880 3030 1880C 3100 1880 3120 1914 3120 2035L3120 2035L3120 2120L3150 2120L3180 2120L3180 1970L3180 1820L3150 1820C 3124 1820 3120 1824 3120 1846L3120 1846L3120 1872L3089 1846C 3044 1808 2979 1809 2939 1849C 2910 1878 2910 1879 2910 1999L2910 1999L2910 2120L2940 2120L2970 2120L2970 2022zM3568 1968L3571 1820L3535 1820L3500 1820L3500 1963C 3500 2042 3503 2110 3507 2114C 3511 2118 3526 2120 3540 2118L3540 2118L3565 2115L3568 1968zM3877 2095C 3966 2036 3960 1881 3866 1836C 3799 1804 3697 1824 3663 1876C 3610 1958 3639 2066 3725 2106C 3762 2123 3842 2117 3877 2095zM4070 2094L4070 2069L4096 2089C 4153 2134 4247 2123 4275 2070C 4286 2049 4290 2009 4290 1930L4290 1930L4290 1820L4260 1820L4230 1820L4230 1915C 4230 2005 4228 2013 4204 2037C 4184 2057 4173 2061 4147 2056C 4089 2044 4076 2021 4072 1915L4072 1915L4068 1820L4039 1820L4010 1820L4010 1970L4010 2120L4040 2120C 4066 2120 4070 2116 4070 2094zM4535 2106C 4566 2093 4569 2088 4561 2068C 4556 2055 4546 2047 4538 2049C 4453 2074 4450 2074 4434 2058C 4409 2033 4422 2016 4482 1997C 4560 1973 4591 1931 4571 1877C 4551 1825 4458 1804 4385 1834C 4350 1849 4343 1863 4359 1888C 4366 1900 4373 1899 4399 1885C 4417 1876 4448 1870 4468 1872C 4500 1875 4505 1878 4505 1899C 4505 1920 4496 1927 4445 1947C 4379 1972 4360 1991 4360 2030C 4360 2103 4448 2142 4535 2106z" stroke="none" fill="#000000" fill-rule="nonzero" />
	<g transform="matrix(0.1334 0 -0 -0.13340001 0 666.99994)">
	</g>
    <path transform="matrix(0.1334 0 -0 -0.13340001 0 666.99994)"  d="M2872 3053C 2853 3046 2830 2995 2830 2960C 2830 2917 2877 2870 2920 2870C 2963 2870 3010 2917 3010 2960C 3010 2997 2987 3045 2965 3054C 2946 3061 2891 3061 2872 3053z" stroke="none" fill="#000000" fill-rule="nonzero" />
	<g transform="matrix(0.1334 0 -0 -0.13340001 0 666.99994)">
	</g>
    <path transform="matrix(0.1334 0 -0 -0.13340001 0 666.99994)"  d="M2505 3028C 2482 3001 2479 2989 2483 2957C 2490 2908 2515 2881 2563 2873C 2643 2860 2695 2976 2635 3035C 2598 3073 2540 3070 2505 3028z" stroke="none" fill="#000000" fill-rule="nonzero" />
	<g transform="matrix(0.1334 0 -0 -0.13340001 0 666.99994)">
	</g>
    <path transform="matrix(0.1334 0 -0 -0.13340001 0 666.99994)"  d="M3270 3063C 3246 3054 3210 3018 3210 3003C 3210 2993 3231 2990 3295 2990C 3342 2990 3380 2994 3380 2999C 3380 3005 3370 3020 3358 3034C 3334 3060 3296 3073 3270 3063z" stroke="none" fill="#000000" fill-rule="nonzero" />
	<g transform="matrix(0.1334 0 -0 -0.13340001 0 666.99994)">
	</g>
    <path transform="matrix(0.1334 0 -0 -0.13340001 0 666.99994)"  d="M2570 2563C 2546 2554 2510 2518 2510 2503C 2510 2493 2531 2490 2595 2490C 2642 2490 2680 2494 2680 2499C 2680 2505 2670 2520 2658 2534C 2634 2560 2596 2573 2570 2563z" stroke="none" fill="#000000" fill-rule="nonzero" />
	<g transform="matrix(0.1334 0 -0 -0.13340001 0 666.99994)">
	</g>
    <path transform="matrix(0.1334 0 -0 -0.13340001 0 666.99994)"  d="M3255 2559C 3230 2545 3210 2520 3210 2503C 3210 2493 3231 2490 3290 2490C 3361 2490 3370 2492 3370 2508C 3370 2549 3295 2582 3255 2559z" stroke="none" fill="#000000" fill-rule="nonzero" />
	<g transform="matrix(0.1334 0 -0 -0.13340001 0 666.99994)">
	</g>
    <path transform="matrix(0.1334 0 -0 -0.13340001 0 666.99994)"  d="M3762 2438C 3731 2407 3757 2370 3810 2370C 3855 2370 3890 2394 3890 2426C 3890 2449 3887 2450 3832 2450C 3800 2450 3769 2445 3762 2438z" stroke="none" fill="#000000" fill-rule="nonzero" />
	<g transform="matrix(0.1334 0 -0 -0.13340001 0 666.99994)">
	</g>
    <path transform="matrix(0.1334 0 -0 -0.13340001 0 666.99994)"  d="M4333 2536C 4279 2490 4305 2387 4374 2375C 4437 2363 4479 2400 4480 2468C 4480 2551 4396 2590 4333 2536z" stroke="none" fill="#000000" fill-rule="nonzero" />
	<g transform="matrix(0.1334 0 -0 -0.13340001 0 666.99994)">
	</g>
    <path transform="matrix(0.1334 0 -0 -0.13340001 0 666.99994)"  d="M2465 2035C 2428 1999 2430 1938 2469 1899C 2525 1843 2606 1874 2617 1956C 2628 2043 2526 2097 2465 2035z" stroke="none" fill="#000000" fill-rule="nonzero" />
	<g transform="matrix(0.1334 0 -0 -0.13340001 0 666.99994)">
	</g>
    <path transform="matrix(0.1334 0 -0 -0.13340001 0 666.99994)"  d="M3725 2035C 3688 1999 3690 1938 3729 1899C 3785 1843 3866 1874 3877 1956C 3888 2043 3786 2097 3725 2035z" stroke="none" fill="#000000" fill-rule="nonzero" />
</g>
</svg>